<?xml version="1.0" encoding="UTF-8"?>
<svg xmlns="http://www.w3.org/2000/svg" viewBox="0 0 76.4 63.25">
  <defs>
    <style>
      .cls-1 {
        mix-blend-mode: multiply;
      }

      .cls-2 {
        fill: #e5323f;
      }

      .cls-2, .cls-3, .cls-4 {
        stroke-width: 0px;
      }

      .cls-3 {
        fill: #a11916;
      }

      .cls-4 {
        fill: #252451;
      }

      .cls-5 {
        isolation: isolate;
      }
    </style>
  </defs>
  <g class="cls-5">
    <g id="Livello_2" data-name="Livello 2">
      <g id="Livello_1-2" data-name="Livello 1">
        <g id="Proposta_1" data-name="Proposta 1">
          <g>
            <polygon class="cls-4" points="38.15 1.39 38.15 10.15 32.46 10.15 32.46 0 38.15 1.39"/>
            <path class="cls-4" d="M38.15,16.85v12.64h-4.37c-.73,0-1.32-.59-1.32-1.32v-10c0-.73.59-1.32,1.32-1.32h4.37Z"/>
            <path class="cls-3" d="M38.15,10.15v6.7h-4.37c-.73,0-1.32.59-1.32,1.32v-8.02h5.69Z"/>
            <path class="cls-2" d="M52.76,11.88v4.97h-14.61v-6.7h12.89c.95,0,1.72.78,1.72,1.73Z"/>
            <path class="cls-3" d="M38.15,29.49v6.69h-5.69v-8.01c0,.73.59,1.32,1.32,1.32h4.37Z"/>
            <path class="cls-2" d="M24.5,2.49l7.96-2.49v36.18h-7.8c-.84,0-1.52-.68-1.52-1.51V4.33c0-.84.55-1.59,1.36-1.84Z"/>
            <path class="cls-2" d="M52.76,16.85v17.82c0,.83-.68,1.51-1.52,1.51h-13.09v-6.69h6.6c.72,0,1.32-.59,1.32-1.32v-11.32h6.69Z"/>
            <path class="cls-4" d="M46.11,10.15h5.11c.88,0,1.59.71,1.59,1.59v5.11h-6.7v-6.7h0Z"/>
          </g>
          <g class="cls-1">
            <path class="cls-2" d="M3.82,45.49v17.45H0v-17.45h3.82ZM7.05,55.85H2.59v-3.21h4.27c.69,0,1.22-.17,1.58-.5.36-.33.54-.81.54-1.44s-.18-1.08-.54-1.39c-.36-.31-.89-.47-1.58-.47H2.85v-3.35h4.41c1.76,0,3.14.43,4.14,1.3s1.5,2.04,1.5,3.54c0,1.02-.25,1.89-.75,2.59s-1.23,1.21-2.19,1.51v-.33c1.02.22,1.8.68,2.35,1.37s.81,1.58.81,2.66c0,1.02-.22,1.89-.67,2.62-.45.72-1.11,1.27-1.98,1.64-.87.37-1.94.55-3.2.55H2.85v-3.35h4.2c.71,0,1.24-.16,1.6-.48.36-.32.54-.81.54-1.45,0-.6-.18-1.05-.55-1.36-.37-.31-.9-.46-1.59-.46Z"/>
            <path class="cls-2" d="M23.06,51.15h3.63v11.79h-3.42l-.24-1.32c-.36.49-.88.88-1.54,1.18-.67.3-1.36.45-2.06.45-1.34,0-2.39-.42-3.17-1.26-.78-.84-1.17-1.98-1.17-3.43v-7.4h3.63v6.08c0,.96.17,1.66.52,2.11.35.45.89.67,1.63.67.79,0,1.35-.22,1.69-.65.34-.43.51-1.13.51-2.09v-6.13Z"/>
            <path class="cls-4" d="M31.22,49.31c-.58,0-1.07-.2-1.47-.6s-.6-.89-.6-1.47.2-1.07.6-1.46c.4-.39.89-.59,1.47-.59s1.05.2,1.45.59c.4.39.6.88.6,1.46s-.2,1.07-.6,1.47c-.4.4-.88.6-1.45.6Z"/>
            <rect class="cls-2" x="29.43" y="51.15" width="3.63" height="11.79"/>
            <path class="cls-2" d="M39.42,62.94h-3.63v-17.78h3.63v17.78Z"/>
            <path class="cls-2" d="M47.11,63.25c-1.13,0-2.11-.25-2.95-.75-.83-.5-1.48-1.21-1.95-2.13-.46-.92-.7-2-.7-3.24s.24-2.36.71-3.31c.47-.95,1.14-1.69,2.02-2.23.87-.53,1.91-.8,3.1-.8.74,0,1.43.13,2.06.4.64.27,1.13.62,1.47,1.06v-7.07h3.63v17.78h-3.42l-.19-1.51c-.31.53-.81.97-1.5,1.31-.68.34-1.45.51-2.3.51ZM47.98,59.93c.57,0,1.07-.12,1.5-.37.43-.24.77-.59,1.01-1.04.24-.45.37-.96.37-1.54s-.12-1.12-.37-1.56c-.24-.44-.58-.78-1.01-1.03-.43-.24-.93-.37-1.5-.37s-1.06.13-1.49.38c-.42.25-.75.6-.98,1.04-.23.44-.34.95-.34,1.53s.11,1.09.34,1.53c.23.44.55.79.98,1.04.42.25.92.38,1.49.38Z"/>
            <path class="cls-4" d="M61.52,45.49v17.45h-3.82v-17.45h3.82Z"/>
            <path class="cls-4" d="M68.33,62.94h-3.63v-11.79h3.42l.24,1.23c.36-.5.86-.9,1.5-1.18s1.34-.42,2.11-.42c1.4,0,2.49.43,3.27,1.28.78.86,1.17,2.06,1.17,3.6v7.29h-3.63v-6.41c0-.74-.19-1.33-.57-1.78-.38-.45-.88-.67-1.51-.67-.72,0-1.3.22-1.72.65-.42.43-.64,1.02-.64,1.76v6.46Z"/>
          </g>
        </g>
      </g>
    </g>
  </g>
</svg>